<mxfile host="Electron" agent="Mozilla/5.0 (Windows NT 10.0; Win64; x64) AppleWebKit/537.36 (KHTML, like Gecko) draw.io/27.0.9 Chrome/134.0.6998.205 Electron/35.4.0 Safari/537.36" version="27.0.9" pages="2">
  <diagram name="Estructura de Microservicios" id="p8ZDuYHBzSLIVWg95oVR">
    <mxGraphModel dx="2823" dy="557" grid="0" gridSize="10" guides="1" tooltips="1" connect="1" arrows="1" fold="1" page="1" pageScale="1" pageWidth="827" pageHeight="1169" math="0" shadow="0">
      <root>
        <mxCell id="0" />
        <mxCell id="1" parent="0" />
        <mxCell id="xd0Q-VsxKAFJdAUnwYhG-13" value="" style="rounded=1;whiteSpace=wrap;html=1;strokeColor=#241DFF;" vertex="1" parent="1">
          <mxGeometry x="-1619" y="221" width="330" height="160" as="geometry" />
        </mxCell>
        <mxCell id="xd0Q-VsxKAFJdAUnwYhG-19" style="edgeStyle=orthogonalEdgeStyle;rounded=0;orthogonalLoop=1;jettySize=auto;html=1;" edge="1" parent="1" source="xd0Q-VsxKAFJdAUnwYhG-12" target="xd0Q-VsxKAFJdAUnwYhG-13">
          <mxGeometry relative="1" as="geometry">
            <mxPoint x="-1279" y="301" as="targetPoint" />
          </mxGeometry>
        </mxCell>
        <mxCell id="xd0Q-VsxKAFJdAUnwYhG-12" value="" style="rounded=1;whiteSpace=wrap;html=1;strokeColor=#241DFF;" vertex="1" parent="1">
          <mxGeometry x="-1208" y="221" width="330" height="160" as="geometry" />
        </mxCell>
        <mxCell id="xd0Q-VsxKAFJdAUnwYhG-10" value="ms-citas (Spring Boot)" style="rounded=1;whiteSpace=wrap;html=1;strokeColor=#1F2EFF;" vertex="1" parent="1">
          <mxGeometry x="-1168" y="261" width="220" height="60" as="geometry" />
        </mxCell>
        <mxCell id="xd0Q-VsxKAFJdAUnwYhG-2" value="" style="image;sketch=0;aspect=fixed;html=1;points=[];align=center;fontSize=12;image=img/lib/mscae/Docker.svg;" vertex="1" parent="1">
          <mxGeometry x="-938" y="231" width="50" height="41" as="geometry" />
        </mxCell>
        <mxCell id="xd0Q-VsxKAFJdAUnwYhG-3" value="" style="dashed=0;outlineConnect=0;html=1;align=center;labelPosition=center;verticalLabelPosition=bottom;verticalAlign=top;shape=mxgraph.weblogos.java" vertex="1" parent="1">
          <mxGeometry x="-988" y="271" width="19.4" height="40" as="geometry" />
        </mxCell>
        <mxCell id="xd0Q-VsxKAFJdAUnwYhG-11" value="PUERTO: 9090&amp;nbsp;" style="text;html=1;align=center;verticalAlign=middle;whiteSpace=wrap;rounded=0;" vertex="1" parent="1">
          <mxGeometry x="-1108" y="331" width="100" height="30" as="geometry" />
        </mxCell>
        <mxCell id="xd0Q-VsxKAFJdAUnwYhG-14" value="mi-app-citas (Angular)" style="rounded=1;whiteSpace=wrap;html=1;strokeColor=#1F2EFF;" vertex="1" parent="1">
          <mxGeometry x="-1579" y="261" width="220" height="60" as="geometry" />
        </mxCell>
        <mxCell id="xd0Q-VsxKAFJdAUnwYhG-15" value="" style="image;sketch=0;aspect=fixed;html=1;points=[];align=center;fontSize=12;image=img/lib/mscae/Docker.svg;" vertex="1" parent="1">
          <mxGeometry x="-1349" y="231" width="50" height="41" as="geometry" />
        </mxCell>
        <mxCell id="xd0Q-VsxKAFJdAUnwYhG-17" value="PUERTO: 80&amp;nbsp;" style="text;html=1;align=center;verticalAlign=middle;whiteSpace=wrap;rounded=0;" vertex="1" parent="1">
          <mxGeometry x="-1519" y="331" width="100" height="30" as="geometry" />
        </mxCell>
        <mxCell id="xd0Q-VsxKAFJdAUnwYhG-9" value="" style="shape=image;verticalLabelPosition=bottom;labelBackgroundColor=default;verticalAlign=top;aspect=fixed;imageAspect=0;image=data:image/png,iVBORw0KGgoAAAANSUhEUgAAAOEAAADhCAMAAAAJbSJIAAAAyVBMVEX////DAC/dADHQADDdAC3DAC3dAC++AADBACTcACbCACjBACDDACvcACroeofdAC7XeobuyM2/ABHAABrcACDbABrmrrXekpz14OPgMkzIMkrVcn/aAAn89PXcAB/bABbNTF/zv8XqiJTncoD+9vfvpa3419v56+2/AAnaAAPwrbXGHz3ytr3ioanhPFTmZnbqvMHkWmztmaLjTGDskpzSYXHMQlf30tbbiJPPVGbfHT7kVmn1xsv65ujkpq7PACbUanjJAADUMku4ZNHtAAALSUlEQVR4nO2daVsaSRSFoaHZUcOSuHQkKiIi0Ykanbhkmf//owa6aOjm3lrvZctT79eZp9JH4Jyq013VuZzH4/F4PB6Px+PxeDwej8fj8Xg8Hg/C896vk+dNX8TqOHwMetVCpdX493DTl7IKri6Pos5+EBTy+bA+vPl6tekLYmb8cN0pBlMmCic06uWnj/1NXxUbZ3fRaTOYIRROqLXL3//Z9KVx8Lx32q0GC+YKY5Gtkw+bvkAasbeUgkCicPKTrLRqu+s7sbdk5QGF+d31nf7oIZp5i0bhbvpOxlv0CoXv/NgZ33ne63Yl8uQKd8d3Ds/3l73FVGHsO5Xt9p2ry5dIKU+jcOY7n7bUdybeco16i5XCWGT56ef2+c7ZN6m32Cqc0Ng233m+UHmLg8L8VvnO4Lyo9hY3hTPfGWxa3tW93ltcFeZnvvO+OXn90S0+b2FTGIssH//8vBF9xt6S5Zelwnw8qVu/7zxf9Iy9JUNv3LKXGPvO7zX6zuC8aeMtaZoPuS81F4lT36mvx3fsvSXzEb7lPjh9iDOR+VX7Tuwt+67ygqD4MhnkpuEqceW+M/UWW+vM0h1NhvnYdleYX6HvfHD1lhSlTjxUPSRJnPrOkNt3CN6SpvMYj/apTlQ4+bbWWvUDNt95J3lLmkisGD6XyQrzfL7Tv6R5S5rqxWzQkwqHxHhSR/Wd8SvVW9JEyfL9kOVDjJn4zhdCiTW4pnpLmknaJzimPk6t7P6D7EeMAoPewv7cUx9jSPii9lgMRhCnfQIl9QFld4G5I74fYdAdpwYmpn6G8Iag8Bvf77BUzYxMTv0FtR8EhXtV/aUb0rnPjMyQ+gmVA4LC+w6XwFKUtXSe1I+pfyIoHJ9yKazuLQ3Nlfr5fPsjQeFzj0thtDy/4kv9FmUS/s6lsPkKxmZL/RZpcsoV+T34EA1b6pdJdwB41hRB8QgZmyn1wzZFYO6WJ/IzaZ/AlPqNY5LCO5ZALDXRwXlSv/adpPCcReFS2ifwpH79X5LCS47IL/VwL+BJ/fpXksKzLoNCkPYJLKnfphVvA45ABGmfwJL6LVohdcUQiM1v0uE5Un9IvOvPoDCSPzLLkfqU9e+UF3LPhqZ9Aj31wzxR4QN5DYymfQI99WtPRIUX1EAsFZXjt6mpX/lNVPhIDcTOpXJ8cuqT1r9TRsQ1cKmnHp+c+vWfRIVvxMivnmv+AWrqt6k3oQ6JkX+tSytq6reoT/oRa29F2icQU59SeAu6pDVwBKZUoDYipn6LKpBWexdvl4fr/wHrDFLqkwpvAan27p0tD3f/Byx2SKlPKrwFlNp7PwDDBb/gLIuy1icV3gJK7X0K0v6tV4D1JiX1yYFPqr2RtH9tFuD36vPQXSGp8BYQam+Y9u/XQSFfBhFJSH1y4JNq7whIOa9OFMLqiJD6tMJb4Bz51Tsw1mlpohCpcN1Tn1Z4C5qukQ/TftyNn6CFvx3n1A/rdIHOtTdM+3j2UEBbatfUJxbeAtfaG6b9YPqFnz4FPYRzOcfUJxbeAsfaG0n7uC+YKqycgP/mmPoVWuEtcKy9YdqLZUr8JDv0B8fUJxbeArfau9SV/KkK+IU5rvWJhbfArfZG1vbB/lxhA05O3VKfWHgL3GpvuLZ/E38psd8CTk7dUp9aeAtcPkMk7V+bKYXIoscp9YccAnOBQ+TDtE++CrM9M3By6pL6Ycii0KH2bsK0T0JnphC5r+mQ+uTCW+BQe/fewCjJvvWZQmS65ZD65MJbYF9777+AQcZJ5iQ7uxCft099hvXvFPva+3QEBpnPbhOFDfgFs099cuEtsK69S6dgjME8cua784agyrVPfYb17xTr2nu2rSLN4rc8V4hMTq1Tn1x4C6xr7wjU0P1onjhzheEQTE6tU59eeAtO7QJxvq1iQWr2vthDisyaLVM/pBfeAsvaG6Z9+l75QiFSV1umPkPhLbCrvVPbKuYXnvolp/YBIw+G2qU+Q+EtsKu9kbRP/4lSCpEFul3qMxTeAqvaG0n7q+vUf0/v5YaTU7vUZwp8y9obSfvMpKigvkKr1GcovAU2tfdsE2WGzGO4aYXI5NQq9ZkC3672RtJ+nJkTZU4cQCanNqnPFPg5q9obpv1S4ZpRiKx+bFIfzhlcMX/aG0n7wXUxTaGRpgw/BfPUJz7hnca89o7gFZ+/HKX57zjNDVwIm6c+S+EtMK69kbS3xzj1WQpvgXHtjaS9Pcapz1J4C0xr7yJMexdMn+ZjKbwFprV3F6a9C6apz1J4CwxrbyztXTBNfZbCW2BYeyNp74Zh6vMU3gKzzzDiCmDD1OcpvAVGtTeS9q4YpX7YYPv3DGtvJO1dMUp9psJbYFJ7I5so3TFJfabCW2BSe/c4T4wxSX229e8Ug9pbua3CHoO1fp1r/TvFoPZWbquwxyD12da/U/S199KRCWQMUp9v/Zszqb0lmyjd0ac+V+Et0B1ysnxkAh196nMGvr72xjZRVosY2TX+jAoSbbrUZyu8BbraG9lEedYrYRRCDKTN0KU+W+Et0NTeWNpL5kH46Z7YdmVN6rMV3gJN7Y0cmfAuMSdcIVYqaVKfNfB1tTeW9rLmQ3JCK1Zfq1OfrfAWqGtvLO1lNx1lp84jXqNOfdbA19Te2JEJY9ksSHbKLuI16tRnDfycuvbG0l663pIpxIozZerzFd4C+KKKxUeIpL3MZ+QKMa9RpT7bHe4ERe2Npb28YZWeBY05hyL1GQtvgaL2vka2PMg/cqlC5BEiVeozFt4C+YeCbaKU+ozqPG/4CJEq9RkLb4G89saOTLh1eYMHNkmRpz5j4S2Q1t5Y2st9RqUQvVkmTX3Gwlsgrb2xtFfdyVGcOo95jTT1GQtvgaz2LpWQ/1kRLSqFmNdIU5+z8BZIFGJHJih8Rv3mAMxrZKlPPdIEgtfe6JEJCp9RK8S8RpL6TE94p8GnYdiRCYfKUkf5riDMa/DUZy28BXjtDTdR6u4YK99vgXkNnvqshbcArb2bcFuF7mFNpULMa/DUJ55hhoHW3siDlmqf0b2jBPMaNPVZC28BVnsjmyg1PqNTiJYvWOozr3+nYLU33ESp8xmdQtRrsNTnXv/m0Nob2USpfzJF8yYdzGuw1OctvAWw9u5gj17oHgrXKESXfQcw9XkLbwGsvZsXewDt41O6tyHVTw4A30EkMhfeAqT2blYB2tvh2vc9VSAw85kLbwHT2d62b7SS/Bl4C2/BiOdFCSwKa2WeDU9LHD5EDGfuMihsDJ9W9aLLtxfaqVEsCsP2zSrf3jVqqla3a1AY1lcwX8vy2KM5Dk1hZch7xwmlf0GyHIrCWvn3et4TePhKsBx3hY3hl/W9Sff5yPn9LK4KV2wwkHHTclciTeEaDAZy72Y5TgrXYjCQ/p6L5TgorJVPNvMi0lzu3cFyrBWu1WAgE8uxPCzaUmHYWrPBQMYlO8uxfB9wbf0GA7GzHBuFldZGDAZiZTnmCmvlg+15w/r7N2PLMVXYGP7Y4OuqEYwtx0xh2DqWn8a/Kc4CI8sxURi2G2t/S7URl12DR/oNFNZb3Pfo+TiPtLaqVbhVBgO5uos0tqprhMs/2G9fMzO4VVuO+u5a63gtLxcncqbsqxQKw3Z+Ow0Gcnkqtxy5wnp7ew0GIrcc6dOX220wkKs7yUwOV9gof992g4FILAdTGO6GwUBQy4EKd8hgIJcdUJEDhbtlMBBgOUsKK2X+x0bWzLLlZE9v2UWDgQweekVUYdh62k2DgaTvyi3O3Gvf7K7BQEbVpfNLJwazktu4G+RxZjmFv8VgIJ/FXblCbDC//waDgcQPAhQmS6SV3YbfPBPLKaz7Ltm6GRX+NoPxeDwej8fj8Xg8Ho/Hsx7+B98oHUeYawuCAAAAAElFTkSuQmCC;" vertex="1" parent="1">
          <mxGeometry x="-1409" y="271" width="40" height="40" as="geometry" />
        </mxCell>
      </root>
    </mxGraphModel>
  </diagram>
  <diagram id="zaChN6VyLmqudC0tAV0s" name="Minikube">
    <mxGraphModel dx="1111" dy="529" grid="0" gridSize="10" guides="1" tooltips="1" connect="1" arrows="1" fold="1" page="1" pageScale="1" pageWidth="827" pageHeight="1169" math="0" shadow="0">
      <root>
        <mxCell id="0" />
        <mxCell id="1" parent="0" />
        <mxCell id="SVV9oGQVXrknXFqE4dmP-24" value="" style="rounded=0;whiteSpace=wrap;html=1;strokeColor=#2C48FF;" vertex="1" parent="1">
          <mxGeometry x="27" y="52" width="772" height="417" as="geometry" />
        </mxCell>
        <mxCell id="SVV9oGQVXrknXFqE4dmP-1" value="" style="rounded=1;whiteSpace=wrap;html=1;strokeColor=#241DFF;" vertex="1" parent="1">
          <mxGeometry x="63" y="85" width="310" height="142" as="geometry" />
        </mxCell>
        <mxCell id="SVV9oGQVXrknXFqE4dmP-2" style="edgeStyle=orthogonalEdgeStyle;rounded=0;orthogonalLoop=1;jettySize=auto;html=1;" edge="1" parent="1" source="SVV9oGQVXrknXFqE4dmP-3" target="SVV9oGQVXrknXFqE4dmP-1">
          <mxGeometry relative="1" as="geometry">
            <mxPoint x="383" y="165" as="targetPoint" />
          </mxGeometry>
        </mxCell>
        <mxCell id="SVV9oGQVXrknXFqE4dmP-21" value="API" style="edgeLabel;html=1;align=center;verticalAlign=middle;resizable=0;points=[];" vertex="1" connectable="0" parent="SVV9oGQVXrknXFqE4dmP-2">
          <mxGeometry x="0.12" y="2" relative="1" as="geometry">
            <mxPoint as="offset" />
          </mxGeometry>
        </mxCell>
        <mxCell id="SVV9oGQVXrknXFqE4dmP-3" value="" style="rounded=1;whiteSpace=wrap;html=1;strokeColor=#241DFF;" vertex="1" parent="1">
          <mxGeometry x="448" y="85" width="309" height="142" as="geometry" />
        </mxCell>
        <mxCell id="SVV9oGQVXrknXFqE4dmP-4" value="ms-citas (Spring Boot)" style="rounded=1;whiteSpace=wrap;html=1;strokeColor=#1F2EFF;" vertex="1" parent="1">
          <mxGeometry x="467" y="125" width="220" height="60" as="geometry" />
        </mxCell>
        <mxCell id="SVV9oGQVXrknXFqE4dmP-5" value="" style="image;sketch=0;aspect=fixed;html=1;points=[];align=center;fontSize=12;image=img/lib/mscae/Docker.svg;" vertex="1" parent="1">
          <mxGeometry x="697" y="95" width="50" height="41" as="geometry" />
        </mxCell>
        <mxCell id="SVV9oGQVXrknXFqE4dmP-6" value="" style="dashed=0;outlineConnect=0;html=1;align=center;labelPosition=center;verticalLabelPosition=bottom;verticalAlign=top;shape=mxgraph.weblogos.java" vertex="1" parent="1">
          <mxGeometry x="647" y="135" width="19.4" height="40" as="geometry" />
        </mxCell>
        <mxCell id="SVV9oGQVXrknXFqE4dmP-7" value="PUERTO: 9090&amp;nbsp;" style="text;html=1;align=center;verticalAlign=middle;whiteSpace=wrap;rounded=0;" vertex="1" parent="1">
          <mxGeometry x="527" y="195" width="100" height="30" as="geometry" />
        </mxCell>
        <mxCell id="SVV9oGQVXrknXFqE4dmP-8" value="mi-app-citas (Angular)" style="rounded=1;whiteSpace=wrap;html=1;strokeColor=#1F2EFF;" vertex="1" parent="1">
          <mxGeometry x="83" y="125" width="220" height="60" as="geometry" />
        </mxCell>
        <mxCell id="SVV9oGQVXrknXFqE4dmP-9" value="" style="image;sketch=0;aspect=fixed;html=1;points=[];align=center;fontSize=12;image=img/lib/mscae/Docker.svg;" vertex="1" parent="1">
          <mxGeometry x="313" y="95" width="50" height="41" as="geometry" />
        </mxCell>
        <mxCell id="SVV9oGQVXrknXFqE4dmP-10" value="PUERTO: 80&amp;nbsp;" style="text;html=1;align=center;verticalAlign=middle;whiteSpace=wrap;rounded=0;" vertex="1" parent="1">
          <mxGeometry x="143" y="195" width="100" height="30" as="geometry" />
        </mxCell>
        <mxCell id="SVV9oGQVXrknXFqE4dmP-11" value="" style="shape=image;verticalLabelPosition=bottom;labelBackgroundColor=default;verticalAlign=top;aspect=fixed;imageAspect=0;image=data:image/png,iVBORw0KGgoAAAANSUhEUgAAAOEAAADhCAMAAAAJbSJIAAAAyVBMVEX////DAC/dADHQADDdAC3DAC3dAC++AADBACTcACbCACjBACDDACvcACroeofdAC7XeobuyM2/ABHAABrcACDbABrmrrXekpz14OPgMkzIMkrVcn/aAAn89PXcAB/bABbNTF/zv8XqiJTncoD+9vfvpa3419v56+2/AAnaAAPwrbXGHz3ytr3ioanhPFTmZnbqvMHkWmztmaLjTGDskpzSYXHMQlf30tbbiJPPVGbfHT7kVmn1xsv65ujkpq7PACbUanjJAADUMku4ZNHtAAALSUlEQVR4nO2daVsaSRSFoaHZUcOSuHQkKiIi0Ykanbhkmf//owa6aOjm3lrvZctT79eZp9JH4Jyq013VuZzH4/F4PB6Px+PxeDwej8fj8Xg8Hg/C896vk+dNX8TqOHwMetVCpdX493DTl7IKri6Pos5+EBTy+bA+vPl6tekLYmb8cN0pBlMmCic06uWnj/1NXxUbZ3fRaTOYIRROqLXL3//Z9KVx8Lx32q0GC+YKY5Gtkw+bvkAasbeUgkCicPKTrLRqu+s7sbdk5QGF+d31nf7oIZp5i0bhbvpOxlv0CoXv/NgZ33ne63Yl8uQKd8d3Ds/3l73FVGHsO5Xt9p2ry5dIKU+jcOY7n7bUdybeco16i5XCWGT56ef2+c7ZN6m32Cqc0Ng233m+UHmLg8L8VvnO4Lyo9hY3hTPfGWxa3tW93ltcFeZnvvO+OXn90S0+b2FTGIssH//8vBF9xt6S5Zelwnw8qVu/7zxf9Iy9JUNv3LKXGPvO7zX6zuC8aeMtaZoPuS81F4lT36mvx3fsvSXzEb7lPjh9iDOR+VX7Tuwt+67ygqD4MhnkpuEqceW+M/UWW+vM0h1NhvnYdleYX6HvfHD1lhSlTjxUPSRJnPrOkNt3CN6SpvMYj/apTlQ4+bbWWvUDNt95J3lLmkisGD6XyQrzfL7Tv6R5S5rqxWzQkwqHxHhSR/Wd8SvVW9JEyfL9kOVDjJn4zhdCiTW4pnpLmknaJzimPk6t7P6D7EeMAoPewv7cUx9jSPii9lgMRhCnfQIl9QFld4G5I74fYdAdpwYmpn6G8Iag8Bvf77BUzYxMTv0FtR8EhXtV/aUb0rnPjMyQ+gmVA4LC+w6XwFKUtXSe1I+pfyIoHJ9yKazuLQ3Nlfr5fPsjQeFzj0thtDy/4kv9FmUS/s6lsPkKxmZL/RZpcsoV+T34EA1b6pdJdwB41hRB8QgZmyn1wzZFYO6WJ/IzaZ/AlPqNY5LCO5ZALDXRwXlSv/adpPCcReFS2ifwpH79X5LCS47IL/VwL+BJ/fpXksKzLoNCkPYJLKnfphVvA45ABGmfwJL6LVohdcUQiM1v0uE5Un9IvOvPoDCSPzLLkfqU9e+UF3LPhqZ9Aj31wzxR4QN5DYymfQI99WtPRIUX1EAsFZXjt6mpX/lNVPhIDcTOpXJ8cuqT1r9TRsQ1cKmnHp+c+vWfRIVvxMivnmv+AWrqt6k3oQ6JkX+tSytq6reoT/oRa29F2icQU59SeAu6pDVwBKZUoDYipn6LKpBWexdvl4fr/wHrDFLqkwpvAan27p0tD3f/Byx2SKlPKrwFlNp7PwDDBb/gLIuy1icV3gJK7X0K0v6tV4D1JiX1yYFPqr2RtH9tFuD36vPQXSGp8BYQam+Y9u/XQSFfBhFJSH1y4JNq7whIOa9OFMLqiJD6tMJb4Bz51Tsw1mlpohCpcN1Tn1Z4C5qukQ/TftyNn6CFvx3n1A/rdIHOtTdM+3j2UEBbatfUJxbeAtfaG6b9YPqFnz4FPYRzOcfUJxbeAsfaG0n7uC+YKqycgP/mmPoVWuEtcKy9YdqLZUr8JDv0B8fUJxbeArfau9SV/KkK+IU5rvWJhbfArfZG1vbB/lxhA05O3VKfWHgL3GpvuLZ/E38psd8CTk7dUp9aeAtcPkMk7V+bKYXIoscp9YccAnOBQ+TDtE++CrM9M3By6pL6Ycii0KH2bsK0T0JnphC5r+mQ+uTCW+BQe/fewCjJvvWZQmS65ZD65MJbYF9777+AQcZJ5iQ7uxCft099hvXvFPva+3QEBpnPbhOFDfgFs099cuEtsK69S6dgjME8cua784agyrVPfYb17xTr2nu2rSLN4rc8V4hMTq1Tn1x4C6xr7wjU0P1onjhzheEQTE6tU59eeAtO7QJxvq1iQWr2vthDisyaLVM/pBfeAsvaG6Z9+l75QiFSV1umPkPhLbCrvVPbKuYXnvolp/YBIw+G2qU+Q+EtsKu9kbRP/4lSCpEFul3qMxTeAqvaG0n7q+vUf0/v5YaTU7vUZwp8y9obSfvMpKigvkKr1GcovAU2tfdsE2WGzGO4aYXI5NQq9ZkC3672RtJ+nJkTZU4cQCanNqnPFPg5q9obpv1S4ZpRiKx+bFIfzhlcMX/aG0n7wXUxTaGRpgw/BfPUJz7hnca89o7gFZ+/HKX57zjNDVwIm6c+S+EtMK69kbS3xzj1WQpvgXHtjaS9Pcapz1J4C0xr7yJMexdMn+ZjKbwFprV3F6a9C6apz1J4CwxrbyztXTBNfZbCW2BYeyNp74Zh6vMU3gKzzzDiCmDD1OcpvAVGtTeS9q4YpX7YYPv3DGtvJO1dMUp9psJbYFJ7I5so3TFJfabCW2BSe/c4T4wxSX229e8Ug9pbua3CHoO1fp1r/TvFoPZWbquwxyD12da/U/S199KRCWQMUp9v/Zszqb0lmyjd0ac+V+Et0B1ysnxkAh196nMGvr72xjZRVosY2TX+jAoSbbrUZyu8BbraG9lEedYrYRRCDKTN0KU+W+Et0NTeWNpL5kH46Z7YdmVN6rMV3gJN7Y0cmfAuMSdcIVYqaVKfNfB1tTeW9rLmQ3JCK1Zfq1OfrfAWqGtvLO1lNx1lp84jXqNOfdbA19Te2JEJY9ksSHbKLuI16tRnDfycuvbG0l663pIpxIozZerzFd4C+KKKxUeIpL3MZ+QKMa9RpT7bHe4ERe2Npb28YZWeBY05hyL1GQtvgaL2vka2PMg/cqlC5BEiVeozFt4C+YeCbaKU+ozqPG/4CJEq9RkLb4G89saOTLh1eYMHNkmRpz5j4S2Q1t5Y2st9RqUQvVkmTX3Gwlsgrb2xtFfdyVGcOo95jTT1GQtvgaz2LpWQ/1kRLSqFmNdIU5+z8BZIFGJHJih8Rv3mAMxrZKlPPdIEgtfe6JEJCp9RK8S8RpL6TE94p8GnYdiRCYfKUkf5riDMa/DUZy28BXjtDTdR6u4YK99vgXkNnvqshbcArb2bcFuF7mFNpULMa/DUJ55hhoHW3siDlmqf0b2jBPMaNPVZC28BVnsjmyg1PqNTiJYvWOozr3+nYLU33ESp8xmdQtRrsNTnXv/m0Nob2USpfzJF8yYdzGuw1OctvAWw9u5gj17oHgrXKESXfQcw9XkLbwGsvZsXewDt41O6tyHVTw4A30EkMhfeAqT2blYB2tvh2vc9VSAw85kLbwHT2d62b7SS/Bl4C2/BiOdFCSwKa2WeDU9LHD5EDGfuMihsDJ9W9aLLtxfaqVEsCsP2zSrf3jVqqla3a1AY1lcwX8vy2KM5Dk1hZch7xwmlf0GyHIrCWvn3et4TePhKsBx3hY3hl/W9Sff5yPn9LK4KV2wwkHHTclciTeEaDAZy72Y5TgrXYjCQ/p6L5TgorJVPNvMi0lzu3cFyrBWu1WAgE8uxPCzaUmHYWrPBQMYlO8uxfB9wbf0GA7GzHBuFldZGDAZiZTnmCmvlg+15w/r7N2PLMVXYGP7Y4OuqEYwtx0xh2DqWn8a/Kc4CI8sxURi2G2t/S7URl12DR/oNFNZb3Pfo+TiPtLaqVbhVBgO5uos0tqprhMs/2G9fMzO4VVuO+u5a63gtLxcncqbsqxQKw3Z+Ow0Gcnkqtxy5wnp7ew0GIrcc6dOX220wkKs7yUwOV9gof992g4FILAdTGO6GwUBQy4EKd8hgIJcdUJEDhbtlMBBgOUsKK2X+x0bWzLLlZE9v2UWDgQweekVUYdh62k2DgaTvyi3O3Gvf7K7BQEbVpfNLJwazktu4G+RxZjmFv8VgIJ/FXblCbDC//waDgcQPAhQmS6SV3YbfPBPLKaz7Ltm6GRX+NoPxeDwej8fj8Xg8Ho/Hsx7+B98oHUeYawuCAAAAAElFTkSuQmCC;" vertex="1" parent="1">
          <mxGeometry x="253" y="135" width="40" height="40" as="geometry" />
        </mxCell>
        <mxCell id="SVV9oGQVXrknXFqE4dmP-17" style="edgeStyle=orthogonalEdgeStyle;rounded=0;orthogonalLoop=1;jettySize=auto;html=1;entryX=0.75;entryY=1;entryDx=0;entryDy=0;" edge="1" parent="1" source="SVV9oGQVXrknXFqE4dmP-12" target="SVV9oGQVXrknXFqE4dmP-7">
          <mxGeometry relative="1" as="geometry" />
        </mxCell>
        <mxCell id="SVV9oGQVXrknXFqE4dmP-20" value="TCP/IP" style="edgeLabel;html=1;align=center;verticalAlign=middle;resizable=0;points=[];" vertex="1" connectable="0" parent="SVV9oGQVXrknXFqE4dmP-17">
          <mxGeometry x="-0.0541" y="-3" relative="1" as="geometry">
            <mxPoint as="offset" />
          </mxGeometry>
        </mxCell>
        <mxCell id="SVV9oGQVXrknXFqE4dmP-12" value="" style="rounded=1;whiteSpace=wrap;html=1;strokeColor=#241DFF;" vertex="1" parent="1">
          <mxGeometry x="447" y="299" width="310" height="142" as="geometry" />
        </mxCell>
        <mxCell id="SVV9oGQVXrknXFqE4dmP-14" value="" style="image;sketch=0;aspect=fixed;html=1;points=[];align=center;fontSize=12;image=img/lib/mscae/Docker.svg;" vertex="1" parent="1">
          <mxGeometry x="702" y="310" width="50" height="41" as="geometry" />
        </mxCell>
        <mxCell id="SVV9oGQVXrknXFqE4dmP-15" value="PUERTO:&amp;nbsp;27017" style="text;html=1;align=center;verticalAlign=middle;whiteSpace=wrap;rounded=0;" vertex="1" parent="1">
          <mxGeometry x="532" y="410" width="100" height="30" as="geometry" />
        </mxCell>
        <mxCell id="SVV9oGQVXrknXFqE4dmP-19" value="" style="shape=image;verticalLabelPosition=bottom;labelBackgroundColor=default;verticalAlign=top;aspect=fixed;imageAspect=0;image=data:image/png,iVBORw0KGgoAAAANSUhEUgAAAMIAAAEECAMAAABN+RseAAABMlBMVEX///8AK08Skk8QqlAAJ0wAJkwAKU4RplAAI0oAIUn19vjF0NgXQ2QADkAyTWkAJErr7/IAADpEVW1re40AHUcAMFbT2N06VG9bdIvh5uq0wMtmcoQAFUO4xMJPaIAAJk8yRmKwtb0mSGZpgpcZNleIkZ4AADliboGTmqY7W3YAI08AGEQAN1w6T2kTlk/d4+kOnVAAi0EQhk8RjE8FTE8Oe08MbE9yzJfE5NOLnKOMoLB3jJ+bqbYDPU8JW08AL08DN08IZU8DO08GRE8LgFBMYHgFSE8KalAHUk8KYU8Jc08GWFARsVAAHE8jPVw2j3BNsHsenF3k8uuT2K6z48ayzsI0m2ZYpn+e0rdQvnp0rpJ9wp4ys2SZuazn8uyK06ZPtHpjqYR5mJiCqJuaq66vvLwqkKsRAAASVklEQVR4nO2de3ubSJaHjUxVKBASMghJWEbWLbaELCV2nO0IEifdIYmTtLZnZruz25v0zux2f/+vsBTogriWCiTFz6PfPyECQ73U/dSpw9FRXuIdSfxE0yzTNLuDddWd36aaJkgSvozP7aE5SZpMVLU9lfVOsVKpNJsGQohjwZo45zel2RQrlWpRr5uWpqoT6bsgaQha+1IedKDoJJwDLJMuyJY5xRCVUa3et9qCKu0x+c6L71+URoqTdhYSpD2E4pDAzkDuW0JjD8mfWLJd6rE48RSp94kFCFU7JxdTYafpF7odp3BTvfpoQcCVATOwdpIZUkOrKyIiTv0dMQUDy4ZYmqpbxlA1udhEm7zedxvlFGQNpWYJW6vgvNavGWizwtN6tdHlWMCYydZkKwDTixkCm5b+1vuXm1cYiKonspo7gHXOcBS1d3j7obX5XzlZwc3quTZRklVtApqUMMOb6xZduwWRqOdWnHhtIFI2n+Dlk8InqmzAQs1pPs2TajbLlGmArdtHhbc/UncfUKm1cxhGtWubNKLrGn548qhQeM/Qd4Fcz8zcwvarNLXYU+vlzbGDcENXoz1BUMtYIwYK/RtsvSwcY4Tx9U90bYEnrpWlfZV0hfrJcPhs/NlFKIxvX2cZTbE9jZqA727YF/sJ4Ksnx8ceQmH8fOM+0S+uRp0P1h09AXjz6HiJUCjcDzMgMEinbFzVDnURhq17j2CBcPMqQ5VmGGVK1bZKMn1r2ro/Pl5DKFw/y8IAIVXTqlapi9Hw/nMQYXz9LEt1UEwaBKtJ+7zWh0fHQQTctGbIB3ZEQeA0R5SPGz57chxGKIzf/pihe3hMURl4naN7WOunm+MoBKd7yGApECnaVb5IYhMKC969PY5GKBSeD6kZRIrZAyUCZD4exyIU7qm7uB0irJrTKISbD98/QuunJ0kIY+rJw84QICwcJyEUxh8pJw87Qxh+PE5GKBQoJw+7Qmh9epKKUKAbO+4IAbwMFqMIBMreYTcI8C5UjKJyoUA1aN0NAvgQKkaRCFTz0J0gwLubMEEUQuE5RXXYCcLwPoIgEuGGYu6wCwR494gUgcYcsAuE4cfPpAiF8auNa8MOEEBwZJGEULjeOBt2gNB6G0kQgzB+s6lFY/sIragGNR6hcLNpo7R1BMjEZEIcgjP7+c4QWs9iMiEW4eblZjV62wiRQ4tkhML7zUrSthHAy/HGCBsOM6gQNjBHgjdxBPEIhfuNsoEKoU5shAnP1QgQNpyD0iAcmcRrC+BdZMeckgvjVxsgwAoFwZFmkN7/57gWNRnhdoO+AQxoEBqklSFmgJeGUChsUKFFiwaBvyTMhtareIIkhDF598Z26NZIJjaZYfjnqKkOSS4UiG17YpuKwKkNPZKuIW6Mmo4wJjXIoD71ArpFskoyfJ9QFZIRbolKEuTqGfwYLAJTdOs6gSC5IN0QTRsUO5Njj6WktRowwnhEikBkjxHrGZf/tWJKD9d6lVSOUhBuU5tVVszuhDHRUeJzWtFzZjKE6xSfMYh6VB1CUFYJxbdM8HVC15yKkFKSUE/OVIhW+TcxZ7HeJOCnxKqQgpBoq+egvXK+oGmTeL/vhmBWY6qEf4GWAuE2drhaRnrbl26adWd+rSGQVNOIzAnwJrEqpBWkm3eRFQ0CsaatvfgTqhXP9YrEN7otMeRe5Uw5MyGMIyoDBIrYEdb7Y4GhmniGXWg0fcasV214l9ixpSO8D4y4IYd6V2aw5EunFSoEwwyPTITpaQn4Wln4Y9IAiQBhzbyK02/LEQ5UFqSc/qOoNpkX2mapZcyLFHyZTJCGULhZ9gysIhbrl1pUK6rNACUCO4ruV3hVu9SrIh57tJ4lV4VUhLFbnyFqGjWzHeM1r51z1EYYUI3rG3mpIZgDoyJ+yorwCRliZVRvN2I39gg9LoMdCYKI+uCTav17VoTn+lRIfIbF4AaE3hQGDT25Qf63jHWh8EtyMiTT646yWPOUjpU0VMyM8LfERGj2fFSQySDJKlHNXG4ITxPSoJrVxfQ9o00VzeI3RGwRQeqXVn6yWc3CEPTipk7ZEf4eAzDtQN/4KbtlG6KKHrlLKDvCD1EPV7sVY20kk4txnmvWrPBmxn/kj8BPtDoXHNvns74AQXMktwON+H/kjTDR+iUlbIPLbYkEIlCSLf/d8kWYWKZdjTSa5LnKAxAzs83lDX/I2Dv7ENRp/arHlaOncTkvVEG8d3lgCnjj9R95IPD8xNJHCleON7Lmv9YG8dQKDbqWmrkg/apO9ZFopOy32dZyIUBNJnahkBBhzIgKwXah7a14wtfZJp4YgchCv0WEjNN/Z9q2bwQGvs+I8HbvCK1P2QrS+Hb/CLHeF4QIhI4M2yxIL5NW2ggQCFeft4lwd5sN4RnZyu023UiGz7MhEC4+bxMhwk97E4RrQk+MbSJkWmsrjD8SOhpuFQHQr3hiP0Oih2zZpWr4nHbdGesToR/GVhHAO9rVf1wVopdIckIg3dcGh0mD1bSFKlKfWyoE4t2Fw/f0CM9J/XkqNKvPFqlLVeIaQzLCDWmECdiiIDgSiGNwDBOa1WxL50uhOg2CJJM657XuaXzzsG5JNzIYdJ4kGukWtCTPtmSEe0IERaZzSOL7pHUNxk/dcnDmYZhyh9aPoaETNkrgGVUujD+SOeeBGX0UCZUwmEqCESARgaxfAz1azzyXIc0baa5WrMdzEsI1mV9bkz4PsCZ1orhC8f4wSU6eJJUZcq1sBLhOV0kGGrETnwQEksoMMkQiWUmzufQiC1/HZEOCw/Ob9DeDZtnd2rAa/U56bJi4bIhHuEmdcnJG0kIlgXydibBaeYzNhrtNNoXhTEjbJgkMu73KAprMWPMK49WumAIxjB5lxO8iSWxRIWiWNH+yabwM+e66T8ekriSHzfs5MhtiET4mbHsGnFIMFCGdatYWBJemdlLwv1ZkFx2HEL+VB6DqlRxMsAaoEOzQwITX+vZIiVlKgndvI4pSHELM9kJW4UpyOKAnL9N5hUX6q6sOBYxekgFR5tUYhOuougyUZse0otLa7tFN/8vVyLEJ31AtvSUqIetAMBBJAsI4tOMZcobSMWOi9AoljtKCAZi4ZpmXBLP4uKmsR4UlCl/gEvjrMoQAGZWqbsVGS5ZKiNoIkzLC0kz9fFZlOATmlTxis2rklm13rzB0Ws6y0/H3ZifdxHC2k2omrzCYFqRLtabyhd2ZQUVBZaCkh/Io4MgwHIcUjumc2LKZFgCW11xvkgxeYbBLMMxqCJp12Zf12mwUKkoRCM9rtVP50rI0gvjU0rTqtr4ZrHkQ2aQdozRRBeHXYMN6EyL4cqaqDcK5sHAxrzWZDJJc73ST8e4/Agy/BQn+FuW9E5OG7nk+XmGQq24w5P0j4KH0JUDw9D+JU2DNuGXLndkrTIFT0qw/+vt/+Qk+/z5eJ/hvwts0rFHT1/Xk4BVmKH3S2NE/fPUzfHu6RvAvojfBq+1Oc63/zsM4D5WRHNn5h+X3UXp05s+Fp1/+IPh7qW12jMAoMCevMMRcmYlOqwv9zwrh65m/Pn+J8SX0SzDtUXjzUG5LJAD1zusEk8FVdfjnma8+pzdGqlmblaMGkTmu8kAWNR8PrEbKdywWDJ9/P/u2LEm/JRHwPK/VjYoCoqdCeS9UlY1mp6upk/hCtWiWPn87+/ZbKoEz+BX6AyUpmv0W1toAalZrstUWJtHZMWf4+uvZmdesPo0hwJ/R6OtFUUk2V21nuRAPkmHHlvtTLaK99ZrWf56dzbPhlxCBpDojK/OiVlUI3MK2uOLJcgjB3rkz5uxamuCfqv7gVQVHvzvj6198bRFOuylfnFzNekDhyPZtbz0aCf4mBgfcb3p0BrppOkNoTfj29fjrN4xw9q/Cl78EQXN+rw8GzjQEsvgP8PXEAQx2FLENj83xNAYpiiE6el345czT/yrOf5uKU2LK5Q3SvXOEkFrv/s8j+JM+xu+eEZiW7BL8ZWeJdr5fBE7/CyO86GX/dMy+EGDxT4wgU4b4/R4QGPQC14Ra9nK0RwRcGV7McvgE0d4QgO1UhhfZ77NHBNjBCPSB31faGwIDMAL9RxxW2h9C8899IgxyaEcYxdxnQaKOOe8XbpJeEH8tLEEVmigSU+JAWwnidAdhlP0+UKEgOFLzKMJ5IdB5hTVoQ//7BYv5IFS27BW2fQSlTukVZubQJlVf5IBQPqf1JZkMshclyMgX1Yz3YDP4VKlF2m+E+Rjov3G1UEoMhWQ1hjlU6YyCYpceADOUMn2aKQdxTNY4VZLZ22dGQO4k+ycM+XYtj26aTqgaCtJDJbVvZK/VNILiIK+vkvLCIBzcaevpB0Z1mudnVbUaJDR+5gTAgVmuAFiCfl6O8UTKPf0sqtq5A7gQfZtJiKCXmzhUkq1tfUJ84n5YeKtZAQxFt5KjDWWUNNHqcGt1GxjGYOsfeD7C63oajrKVb+2GLIeMyoDcxyC7JtP61ayay7fCIeDwOpFtZnUv31y8YPUvajPGQAnhK1JTryjVmi5PtX18ct6VpGrtS1kvVkVD2SRHcLlRms3ioN632tv7Ljg5R0MVNMus10bDitg0kJMrbAQOhCwLEE75Y3FUrHcv24I62dvLjxIvSVKjIbStelfvFIvVx5V1Pa4Ui85b75ptrdFwrk1xHzjooIMOOuiggw466KCDDjrooIMOOuigZE3UgJbmskbozHdqi7Jh1a/RyL701m2lbmv9TFHvZ1/R3YZOOLguoHRcHwxJVoJnjFKWiDdb00nY/wYUsSeMJIdd7bjS95gPEQiM+3GaKASo9Ped3ggtEACO5j03kIOB5EPgELc8w118V8ZxT3OEni3Lp6cDzzMNjnwInHwqy7LtuYYAPeMH6bYhDwF2LMmRVgwjVPAJaeLFcICDHIIP5a0Fgrv0JnkvG1b9CN51I68ozRFU/RxrNhXcgyt3v7/mHte6qyqv1a/OF7JNLwP5rvd/WTDdf3Vt2d2o3Zp7pWaV3FO9+Z0E7/fz4O2jEOZumvEIi1xQa4hlWVCFIgfwAarUpYFYnh/rXqIaJe+spzKqdPHvfF3BVzFVA7mXc815M8d35zcrK06JxX/ixUThBxW0ug3gKrqUBWGZC94+j96qsVJ8XnlN17GMLwVcbyHAAVfm31CurlwIFdttI6ahZVDP7boe8G6CKODAmQnB78no/35Xzy1XYiBFDIvfd8RnoJvW6pYhBCG0NQkGouJlQghp8bQpfntckA1y7UgEDr9WLezk4CJMw0/hLnNEgADC5XIrXG4DLOOSdD6/BIniImBV04/ALq9nO87z2s3QbVyERffUcm4zL5mBDpa2Os/TN51O615xgj187Pn5olOM4EX2KGmCILSNEALsTqemrxGfI7D455ovGoeXDNiznNsIzdwROOyeLpTcU2XbOZ54BZdbIbg0R1IliMAOnDos6XD5vDmCG4z2UlkhnM4R3Oc+pkIQ3bnCxHsAN++d5wgIFxjNQ+D0aISLaISy3sDPCyM08kdgRFfeMZqHKX1gCD7BhTv3w0VgF87QDxcBnkweJALHOfMFb/SwnPI8LATuAqvu9QPoQnqACN58QfJuCmz1ISJ410V2bQ8RgTkgHBAOCLtC2MJIdccIONl8H1EjSHo5GWHzRhXYE6dXUUVSBKZaLC72R64hqLh3SkRo4yuEWFOYBCgRmLtSXdfndoJEhLmhAq4ch/0Tz2rRuc2cLRKB6Q2cK/R5KBZY9A8wdKz55k12g955MLfKAG75kUclAUEL7011EUwudBsUiYCv4BZBygNmYd8ZdEo+RpqGdnDDkRaPIJ2GrncRrHCQnsCnvCON85cxxnlmk5HqvAr77yvzQQRmiXCk9ZBnuoALm5iLwM+CKUQnUgoChBD/aRRCeSYsELBBkjVchA6Hj5E3/XePFbcZ0nplzm9J9CbenkHSudxFAPiCsotwpNqzHjbA9Owau0I4msyA7zYsh84DVtUTxK4JcsgLui3JyvoZAFBvkYOqXsLqmM6xYHvHGGdS845l9yrB9E65qul9N6G82fEuwRaMrntcGsxfq2BNHWm8v19wbuq/TcmWg+sDeqe0LnsedVsyw2eWhkBeFVzhu0nC6pifHy9M+BNhpcb6byq/uk3Q4r+OgOPMhW+zkioEtGScxJ7ZjvjJUiZaR3goateuFpoxDxPBaoG5Fn0bVUCRfcoKtv/saN9J2lRBBKhk3QC/cwUQgBIVhP/7ltUUm0tVRL394AiOGppP/GEL2EEHHXTQQQcddNBBBx20H/0/CzGPVR6JzKEAAAAASUVORK5CYII=;" vertex="1" parent="1">
          <mxGeometry x="544.5" y="316" width="65" height="87.11" as="geometry" />
        </mxCell>
        <mxCell id="SVV9oGQVXrknXFqE4dmP-25" value="" style="shape=image;verticalLabelPosition=bottom;labelBackgroundColor=default;verticalAlign=top;aspect=fixed;imageAspect=0;image=data:image/png,iVBORw0KGgoAAAANSUhEUgAAAa8AAAB1CAMAAADOZ57OAAAA9lBMVEX///8ybebJ6ewgv88ua+YraeULXuQcY+UgZeUfwc5Rf+kzaOdnkfAnaOVCeevs8fzP2vhhiuo7dOdMe+i3x/XZ4vqHpO5rket5mu0Aw9R52eS+zvYzZufS3fkexM3J1ff1+P7k6/uTrfAhu9Dw9P0oodiqvvOiuPIsjN4it9EpmtoksNMxc+QweeMvfeIrktzw+/zR8Ox0l+zD4+suhOAmqtUsjt2luvKLqfPl9/myxviYvema2uJKxdNkkeff6Pyv0eoontmixum62+sAU+O14ud8pOiKselgytah3ONwm+ebv+my1OpaiecepNZbwOF90uclrdSFLKDrAAAUYklEQVR4nO1dC3vathpGQbZkgyDcaSFgCIXc23DShtJ2rNt61u5sOaf//88cybakT7YBQwhhq99nz5rYsizptT59Nym53Jbw+pNZczY59ratIMMe4dVdQhljlLh177kbk2ENBjNKMQqAKZ55z92gDCswmCDBFiWoigjllNHSZPTcjcqwBIOi4AhTNhccjYYFzh2mtOU9d8MyJKDRZozzQ9y5vDKalAR/DDcHz9mwDAko1whnyyKljnF5zAiXj8wuZlLxkNCpCFowmfbjt1xxy7Jb8VsZngfHpWASVU4Sb/ertph6drGx53ZlSIA3EWzxRWq2fJFqTJnF5xhY2jI8E+a+uKN0unry9IvEV0aKnZXFMjwpvBnyVXY89iJ33r+Plh0MA4UETaJlM+wHo0lVmMQEDaOS8P3R0dH7N9HyjZlvkLHSPFMW949Rm4jRJzQm4d4cBbiNMebd24EJnbmp9ozGjIr1iJZiLt03t0cKMaGYK98j3wWChuW9tDODwKLoa+gEx22q90cGYlOMm9CYWsLFOPWevqEZcr6uZwnjuLiWrSWM1X3rmq3TKTPsAo0SZwsz242z9SbOVqJQ5IzV+ATF3ITOHItPilE9MI7ZLD41ktlaxthJm1rC6VHJ3FRPh35gHJP2cfxegihcKRR9E5qLVbuV7MXK8FhMkL/skEmCareSrWWMlWcFJtxUtfqTt/0HxJSIeLGV5CZcLgpXC8XcoomFek8mT934Hw4jxoSbMHFgU7C1lDFvIvI9qPu0rf/xUGQIJ7v+1orC1UIxN5rwKZbNsN1iQrjUSnL7bcCWQGLlDRshO9MTdwhPOHa3XLhMJArFAcG48tR9+JHQIShp6dpwci1nrMlQ4uzNsB0Sx3MrtpIZW3CVI4s97w4uxtXIpc1FIUBM8ahgq7WnvvwAWDDMZsaVR7F1FI9mch2Revvr0D8cY4qIob9tLQoBY8Yb+gSRxV779E/GlM8v8OsO2IoyVibZArY7lDDWDojHikINmDCAUETiZtgaHtHLFwz3r6LiNl059Y4i/CQyPArHXFgFLvQ36UTh7Yca++uXVIxJoTikmD5fDx+D8g49M4Od1CXUDT8+mXbh+mCL4PGv6QoHQrFfwGRP6QGNYWs62fxdXr3ZahqRn0F/3HQZ+W0HbfIWnUm7RO3SDurKtS0k1I3Uasatv7vS+iltcZ+xGmbtXTR2LVo2syxqTzd8rM/8Tb5MzYAKI4QyjJH9+DYxSqiIt+9kTSiXfO/eG+dLSgL+RfzdsPhf6Yp/fCneMrXwTj6udXBpsFmXbuaw7NvhJl9bhsNdS155fKNk5Tvhi9tGflLoi/yndIz96vOFWCq+Pn7K+3wJoevtoLVrMCfh0CCyUVQbqU3ZKLzi4gPla8JHUvjmX+Tz+ZdpKAjnVy0FX1++ikrFW4TFvIcFrCZHGVmbjE1f0YxImLxysHy1+MQX/wq+8vmP60m4rfrT64/1CuJLv0qfL4/P4vEOWrsGthp3wwWwDhOqnpOtPFi+eDW+rA/4SiEUb38Sor3wYR1fH4MKA764Ub4PhQPy5aV/bMg0X2Fg6VD5KtuIDcUPIV+csXV8/Vv0jvyyutQXWV3I134UDj3usYjDKszB/Ao3eBwqX1Ld0HytW8ZufxejYv+5kq2v+Qhf9XCZfFo0FWF0E/9XWc9L2wsuHSpfQt3wXeeAr/ynb6vI+CC+xpX28kdQV8hXme7D5VuWigOmGwW0m/I5MgyvHCpf3Pqq+T9AvlYz9ovoHFmuHhpsSb74AOwjZtknljjKgJGEHOVVqARKL1F29oHyNZDLV4SvVULxZz+1dNndL5+iFQVvarO9WMyDFrVtOt14/9kY2YSUtNF2oHx1iIxVRvlaztifq/j6Gq8meBNf0+29JN14g4G3zXODBST5QPnimiwJmhnnK/8p2RpbMb8+xiuRfJ0QtKmQek4cKF/F0FpO5CvZGrv9w9fnf47bX1+SqpB8eclJc4eKA+WLV1IMfkrkK5//GmXs9kPwevvnKFvRhcvkK1fD1qZe81xu1OjXx+PxvNPwzBvlxsnJYhP56g1OOvV6vdNfeGvL5p6SL29w3O83Vi2wo/6k3XJbzXHMgycSK0INdglfhovqVuCPwMYh/7k1wszxhSvC15ArHJsM8KAzcykhhPrgysBQpuwcD10SADcjIrYjAUODi/qsYomawqesVvTMicW8HmAubcREvjp1hbE/4HX5OjCyx6oNXnhF8+XVm9WwIbGmS8xdm1CLWRajhA3NhnIlgIY9W8pXyNjt0a//+fdPLqLSJLWq7vT3X3498jl7ufxpydeCoPjpEMvQbyJCmKXct6K3zG6NcotxkXdDBjsQIzVjQyCS9Er3hjepMELNmpBFSdv4wOt28BhVif5JfI1lKUp/879y7zf5GPC1VVRd8hXKGseEaA8Mb3oCYxNKLNBSpgxCH0ULVwdr+RJC8c/f/yJ2pNvYYjb76/efj745Kx6WfOWINB3Wo/EbQwmwrCqhVuSaDVfFqmxaLbxwbJtt1gMBrfe6dEiRFXx1tBeENP0rnrwCTcuWbDqJ8RUBtpuRfh8jGm0tLekvyysg5YVdzpfTezjDpGAlvlN8q+juwVnOmOLLxXKtXM8XSX5Z4tBDwuJ8LamJDxb4eNLwdULU22m4EGu+QHg0PV+8iBlWvbcTOmgxlbq5ADrbMr6c/KubQvI3qrpuFW4+53vr+GoylNYJu4yvZNhaJKbniz+mAzwp+BponzCTo/xovhCFPp9JckHMZEXCCStkqDcrTnqJM8TpvS4UVpIV1lmwzpbMsZe5/ngQvs1O6fLdjC/gi9+EL6QWmBR8eXpuM6WWP54vuJWxs6ycJTszCzamDArUovgyYbidV6iwcqgACtXXSYw5/62QYD1ekEje9674QkTpMRvxpSNy6/mqqQXV0m61HfClP5qRIQwtDH7TQTn/05yKN+DuQ3S0e+dWmrklga3uQ0woOud+M2wxolzhSGkxA76Yr9Obb+Jrpg00LTBcK/jCjBDbFsf+KaiUkrV8VTRdSD60DV9+IwhUKtRH09IKArOrFZcBRTHc7oUREytnmPVQiMww56y7AVs+unfnkTq+d4N2ig5NLW6BbMhXtVlvDE4mGGo7xK0vyidtMHOUUrCcL4ya/KlyYwIGSyXlrOOrrT4YvZjkxJQIr6bli7JZfzBajKvgAwwjbg2g9QfHpTUqqlRgJJ+E6kbYNtyFhDnnKK4RYmypi/xHHOMTW8YUc05Dse93qEPTblNRfFnh1+e54OsLx7QDsmSkxrGcLyZ151FVr0Ty2hq+huBNsAMD1cx0fGnxAmoMM0basoNYdQaUssSvTYZ9XXFMJBt6djifY6KQ6xTXdxcX4YKGry7OblBcc+yenWq6LuUM9cdhoDK/N+ZLRyL5J6G6o6PJstoUfIkYkiwlNYfVfM31A7ZhnW/IF8wBGqq5EzzrJWbiqa/UTy6r4SAk5dVC00IT1rvoRsjqWjcXl06v91bydd3r9c5f3V11I8QWbqTa4ZxfhbfCEzistBZznC8d6td86T4qqyQNX/pTVvbFSr76Wp5Fzjl4BF8g9c6XuFpYQJtHJdqJSehR1YmxbYVj8dYXZ86NSRfu3r3N+xq/8yD5qvq/9pzLC2Suc1Y1kKu9t+F1TMITRytpt6kk8KUXIsVXriXfqz6DVHwBnXE9X7SuFzw7Ih0ew5cmyBex6nM0Nl6pL9Jq+oOicgIbrWCK4cIrh3NwZmjxlnV3qebMK8kXkrLTOb+oGvTiq1NeSe8iWLswLd2Hb+H2A05DVxJfnhxSwJfKG1RkpOJrpKiXSW8r+AIeotixL4/hK6cEom+N6O/DyHJRQ1rxnb16acudh5ZWARfe3UC6cPcd8F04cv1CGKgVvYeuZTxyeVatBgWtrnYjiGh2Kos5gS/ddM2XGmalFKfiK6cWXbmrehVfCiQmyx/FV0WOGBWfszIzsDttaahOl3x1A+wCf5G/kGLN0CG6N5eGxnchX2MZenv+nSEUC1J37N79TzdxQXE6F30SX1LgA776W/IlS6kMhTR8sahz9pF8aQk4NDLquN6tAGxMPzUKZMC84Mr3dcyZgbsXpgnsvJZ8FU6NG71THHeF4O7b3kvQxiK2Url8k/iS3yPkSxWTbriUfCllYgO+6H0uikfxNVF8tX3Tag1yA2oc4yD8vc5dNFhxFbF/uREti3TP8xG8juiUCN+cOnnIV9qDHZ6Yr5IkQ0rnVPLQjm0AeBRf91A49NfzNTePcfD9870ro5mFmygl+d6ZLBHnqxchDCNxFfKVdpvKvubXRnwFTrVEvqDauxVf9XV84dzMMpQ1ny9zgllncf9t707xdRm/+d2Yn9aFE+GrnNJiPiS+NHERa/mRfA2hPFzHF67mWuYOhCD+dQ7L3CWEtHo3iq/vCXc/G2vYZXR+5TBOlSR1QHxhFyz61NRulf9wG76U1S70DSAPGUkCSubr1JhfYvmJMnItO1KI+fPzvQvDEDjrxflKl9R2QHyR8lSPJUYebKbyz0OnRFq+tMV1Dx3cbNg4SQLnF8fkYe+1KdCu30anmF7huGVt3nLyd6aGGKxwkK8RV+jTbNvbG1+NtXzZ5dxUe9Mj2zaTmEjLl/ZvdMBMXe6x4/ITriW+fngZ8xqeRQhzVF8LFyZfvQcc0S7xdXT96qcMWR7Q/BLxxBbYH2ZYYWqUdah6C39UAzR8eVIpHxPVK45vgoyrmFZUuI5o9OqO9dqk8nU8WtYVUxDy1bLSJdEfGF85EM0xfIjKKwG+/JR8aYUmiLCpVTKq1OgBwIbvntP1NmpAiZd0P0NezrXeBKeec5qUOICrvMg3/YoJQel2xR4aXyB7A9kgAqZ7qlWBdHzpLdOBiNUKB656yYMiimBN5heuzSfGkwt3QO24VLRA9bF3YUwu9XP3wXkBWKA45T66Q+MrtwD+IqBbKB+gSpNOydcExCsDv4keP6saCep6IUlcU8UFffnbg54iRuQYY612fNd8XcuLTt50ZBV0BBc7+pQ24SMj6bapHhxfKqYrBli3Se+/RaQdfInHNa1ZhqWifI3qNZjL4PkX74EWSorjk+CqVz6+rxDZGd4oVvTU2/+Qre6+Or02plr3LJxiDuC0KkMsn808zsKrnpbNQBjzjiT4TP8mfOlpA6OW0I3EaKXZrFg6qzQhf8NC1VqtSggYLzUx4SBalFtcpVoJUZFLr/waJ7ah8HhhFhC+4etR1ZwyodrhAAvLCq5EFA1cuOipIBkMQbRp1Hz5W/HlAeUXq24Y6dMWMxLWE/jCEcmF9IE6PhnmLRybqaI3IJE8XFb9vJueGbPEXV8dhBpkQaTWON9NRQP7eYyhVQ0kh/83CUppD4U9QL5gWoBWmu61ph9DqvxDIIDAmhatSU3oGS9D9SN98b3gq0DQnZnaYuHu3Dl/B8jB6NXp6YX5veDqW0dNQwxS9U9wgr/0b8UXULnBKJeWbCtAqfjCxpA0lxEGQjltoXN46leREywN4WjODe4WjCgyf7BrXhAe+XBRE4+CE75ETlI8PrsUB8mXBzy/SkccRffLaKznC0e+4FnSfgeEDCOItx06WdoUXymj6iHBHluFwrVU/HvvLAwyETw+2GyD3ZUp+Treki93K76gRCTKq1auLhOJa/kiUcU916EsqSB09C64jQ7XmUpX+y16bzfJx+YSU1tkp10CHIUV03JYi4aNA4CWVZgMknu6WHhJbfOoyjJ6/5esCfBVYeFFuf+iTsILmi/5NrhFY0pVpB6EXYcktmkLW4zYTJqatjj5MjpYFknyfHtNO1YZVxahWi1C0eDRMgJxEuc8nsK7nC7D4XEFQq5joRpuciTGouQGqOmWDisS6tLAlZekgG/JC3Iyn6iagDQe1sKLMj28Iy+U5JbHqazIBe32KhogjWl074rDSMMvhVFiW5VhB/C8mLdrVBRhohATO12Ju+S0n/KwavO6fFVS8E5td+wZJYSiDZwsjVPgfnIuq2kJ676GjkbnNZAj/JOJpu79w+CdzIfTCie81R7O+4k5YIv+eNhu8TKt6ey+762obDFvulUs/tJdrTjsxB1CIi0Q/D0p41iGqO9iKSzDzZh/of9eQNk0GjKkg+ctuzPidDGgc0ROPblJQRiObiX6ot/rWoim3QibIQ1G2DyAzjxJwzlbryZakb1IH3VlRcYVUG/vffpHQ2iqQOd4YxLWi6a5xdeuCF2fdNXCai9sfPxWhtW4J1zn0Jlm702JeLlG54hm5oAYijDASWq/Roa0EH4OpAkzj4I6X00Xwu/M6aV1jQVCGx4tniEdhJ8DpAdAnUO525fydWXML/B3Yrn5tuHR/RnSQfjmGTgNQp0w5Djna22wwgU4GgAkbLS4rpGphk+DDsGIgJz+Tz5XvdOHsxROqe7Nq3MnOMLjq65ixi1xkukaTwSRYQVUg/cvevmHd7HtrstEYqFbvft83oP5GqJCljbklWFjFCnX6vV0ODq7XnMQUYQy3EV3n/XidVI1J2yGXYObttB1P155MEsiZTCgIxz/2V9BfEqUuexjQJ2brYh2J4ICJ7jv19h/H34oNGxs7Kp2E8NnS8GALtjmFnj2V+ifGnU+ykz70stJ29aWAp73KiqiKU9jy7A9xF4MoIIPlmQUJMECoXORnJXpGvuA0DlqemKcuFSFmPFKkIp2Z5W5apiwPzvD7lFm2FiHvFkpPFeaJoExVijw/zEXZj/VLMRqsaozPAXKLJrm7o0kPPGflwSjCpFhkIW89oV7e5PUzgTMqRGcyfDEGItg2Pa63YkwCnb4Z8EzrIPYaIS3tZ0WJbxJKm+Gx8NzTT/HRqha2z+bYTuIw9Yp2Bm2wZMtZmyLzrAXzPkaxNDGgXxvLhLA7SyGsnfMCUaYYre4CVxG+VOFTDV8Bkz8k9rhYXxr4W8IpCjLhnoWDJqErvZAxWFRlGmGz4aTScstbQK3Pc5c8k+E/wPCv7yjSuuhzQAAAABJRU5ErkJggg==;" vertex="1" parent="1">
          <mxGeometry x="37" y="401" width="198.92" height="54" as="geometry" />
        </mxCell>
      </root>
    </mxGraphModel>
  </diagram>
</mxfile>
